<mxfile host="app.diagrams.net" modified="2020-10-15T12:01:25.415Z" agent="5.0 (Windows NT 10.0; Win64; x64) AppleWebKit/537.36 (KHTML, like Gecko) Chrome/86.0.4240.75 Safari/537.36" etag="32YXaEs9HjMd7rW2kVet" version="13.8.0" type="github">
  <diagram id="C5RBs43oDa-KdzZeNtuy" name="Page-1">
    <mxGraphModel dx="609" dy="261" grid="0" gridSize="10" guides="1" tooltips="1" connect="1" arrows="1" fold="1" page="1" pageScale="1" pageWidth="827" pageHeight="1169" math="0" shadow="0">
      <root>
        <mxCell id="WIyWlLk6GJQsqaUBKTNV-0" />
        <mxCell id="WIyWlLk6GJQsqaUBKTNV-1" parent="WIyWlLk6GJQsqaUBKTNV-0" />
        <mxCell id="AhSV-trbJ5OTMqngt9kD-1" value="&lt;h1&gt;Создать пирамиду из символов &#39;#&#39;&lt;/h1&gt;" style="text;html=1;strokeColor=none;fillColor=none;spacing=5;spacingTop=-20;whiteSpace=wrap;overflow=hidden;rounded=0;" parent="WIyWlLk6GJQsqaUBKTNV-1" vertex="1">
          <mxGeometry x="40" y="40" width="440" height="40" as="geometry" />
        </mxCell>
        <mxCell id="AhSV-trbJ5OTMqngt9kD-9" style="edgeStyle=orthogonalEdgeStyle;rounded=0;orthogonalLoop=1;jettySize=auto;html=1;exitX=0.5;exitY=1;exitDx=0;exitDy=0;entryX=0.5;entryY=0;entryDx=0;entryDy=0;" parent="WIyWlLk6GJQsqaUBKTNV-1" source="AhSV-trbJ5OTMqngt9kD-2" target="AhSV-trbJ5OTMqngt9kD-3" edge="1">
          <mxGeometry relative="1" as="geometry" />
        </mxCell>
        <mxCell id="AhSV-trbJ5OTMqngt9kD-2" value="" style="ellipse;whiteSpace=wrap;html=1;aspect=fixed;fillColor=#030303;shadow=0;" parent="WIyWlLk6GJQsqaUBKTNV-1" vertex="1">
          <mxGeometry x="399" y="155" width="30" height="30" as="geometry" />
        </mxCell>
        <mxCell id="KujpJCQLHhz-ug4YmuEu-13" style="edgeStyle=orthogonalEdgeStyle;rounded=0;orthogonalLoop=1;jettySize=auto;html=1;exitX=0.5;exitY=1;exitDx=0;exitDy=0;entryX=0.5;entryY=0;entryDx=0;entryDy=0;" edge="1" parent="WIyWlLk6GJQsqaUBKTNV-1" source="AhSV-trbJ5OTMqngt9kD-3" target="AhSV-trbJ5OTMqngt9kD-31">
          <mxGeometry relative="1" as="geometry" />
        </mxCell>
        <mxCell id="AhSV-trbJ5OTMqngt9kD-3" value="" style="rounded=1;whiteSpace=wrap;html=1;fillColor=#FFFFFF;arcSize=29;strokeColor=#000000;" parent="WIyWlLk6GJQsqaUBKTNV-1" vertex="1">
          <mxGeometry x="354" y="249" width="120" height="60" as="geometry" />
        </mxCell>
        <mxCell id="AhSV-trbJ5OTMqngt9kD-4" value="Ввод числа N&lt;br&gt;Line := 1;&lt;br&gt;Index := 1;" style="text;html=1;strokeColor=none;fillColor=none;align=center;verticalAlign=middle;whiteSpace=wrap;rounded=0;" parent="WIyWlLk6GJQsqaUBKTNV-1" vertex="1">
          <mxGeometry x="372" y="264" width="83" height="30" as="geometry" />
        </mxCell>
        <mxCell id="AhSV-trbJ5OTMqngt9kD-20" value="" style="group" parent="WIyWlLk6GJQsqaUBKTNV-1" vertex="1" connectable="0">
          <mxGeometry x="355" y="520" width="119" height="60" as="geometry" />
        </mxCell>
        <mxCell id="AhSV-trbJ5OTMqngt9kD-11" value="" style="rounded=1;whiteSpace=wrap;html=1;fillColor=#FFFFFF;arcSize=29;strokeColor=#000000;" parent="AhSV-trbJ5OTMqngt9kD-20" vertex="1">
          <mxGeometry width="119" height="60" as="geometry" />
        </mxCell>
        <mxCell id="AhSV-trbJ5OTMqngt9kD-13" value="Вывод &#39; &#39;&lt;br&gt;inc(Index)" style="text;html=1;strokeColor=none;fillColor=none;align=center;verticalAlign=middle;whiteSpace=wrap;rounded=0;" parent="AhSV-trbJ5OTMqngt9kD-20" vertex="1">
          <mxGeometry x="29.5" y="15" width="60" height="30" as="geometry" />
        </mxCell>
        <mxCell id="lAccN52SBvZUJXnm4NxN-3" style="edgeStyle=orthogonalEdgeStyle;rounded=0;orthogonalLoop=1;jettySize=auto;html=1;exitX=0.5;exitY=1;exitDx=0;exitDy=0;entryX=0.5;entryY=0;entryDx=0;entryDy=0;" parent="WIyWlLk6GJQsqaUBKTNV-1" source="AhSV-trbJ5OTMqngt9kD-31" target="AhSV-trbJ5OTMqngt9kD-11" edge="1">
          <mxGeometry relative="1" as="geometry" />
        </mxCell>
        <mxCell id="lAccN52SBvZUJXnm4NxN-13" style="edgeStyle=orthogonalEdgeStyle;rounded=0;orthogonalLoop=1;jettySize=auto;html=1;" parent="WIyWlLk6GJQsqaUBKTNV-1" source="AhSV-trbJ5OTMqngt9kD-31" target="lAccN52SBvZUJXnm4NxN-7" edge="1">
          <mxGeometry relative="1" as="geometry" />
        </mxCell>
        <mxCell id="AhSV-trbJ5OTMqngt9kD-31" value="" style="rhombus;whiteSpace=wrap;html=1;strokeColor=#000000;fillColor=#FFFFFF;" parent="WIyWlLk6GJQsqaUBKTNV-1" vertex="1">
          <mxGeometry x="349" y="368" width="130" height="80" as="geometry" />
        </mxCell>
        <mxCell id="AhSV-trbJ5OTMqngt9kD-32" value="Index &amp;lt;= N - Line?" style="text;html=1;strokeColor=none;fillColor=none;align=center;verticalAlign=middle;whiteSpace=wrap;rounded=0;" parent="WIyWlLk6GJQsqaUBKTNV-1" vertex="1">
          <mxGeometry x="361" y="398" width="106" height="20" as="geometry" />
        </mxCell>
        <mxCell id="AhSV-trbJ5OTMqngt9kD-43" value="True" style="text;html=1;strokeColor=none;fillColor=none;align=center;verticalAlign=middle;whiteSpace=wrap;rounded=0;" parent="WIyWlLk6GJQsqaUBKTNV-1" vertex="1">
          <mxGeometry x="257" y="828" width="40" height="20" as="geometry" />
        </mxCell>
        <mxCell id="AhSV-trbJ5OTMqngt9kD-44" value="False" style="text;html=1;strokeColor=none;fillColor=none;align=center;verticalAlign=middle;whiteSpace=wrap;rounded=0;" parent="WIyWlLk6GJQsqaUBKTNV-1" vertex="1">
          <mxGeometry x="423" y="902" width="40" height="20" as="geometry" />
        </mxCell>
        <mxCell id="AhSV-trbJ5OTMqngt9kD-46" value="True" style="text;html=1;strokeColor=none;fillColor=none;align=center;verticalAlign=middle;whiteSpace=wrap;rounded=0;" parent="WIyWlLk6GJQsqaUBKTNV-1" vertex="1">
          <mxGeometry x="419" y="466" width="40" height="20" as="geometry" />
        </mxCell>
        <mxCell id="AhSV-trbJ5OTMqngt9kD-47" value="False" style="text;html=1;strokeColor=none;fillColor=none;align=center;verticalAlign=middle;whiteSpace=wrap;rounded=0;" parent="WIyWlLk6GJQsqaUBKTNV-1" vertex="1">
          <mxGeometry x="524" y="380" width="40" height="20" as="geometry" />
        </mxCell>
        <mxCell id="AhSV-trbJ5OTMqngt9kD-48" value="" style="ellipse;whiteSpace=wrap;html=1;aspect=fixed;fillColor=#030303;" parent="WIyWlLk6GJQsqaUBKTNV-1" vertex="1">
          <mxGeometry x="399" y="1027" width="30" height="30" as="geometry" />
        </mxCell>
        <mxCell id="AhSV-trbJ5OTMqngt9kD-49" value="" style="ellipse;whiteSpace=wrap;html=1;aspect=fixed;fillColor=none;" parent="WIyWlLk6GJQsqaUBKTNV-1" vertex="1">
          <mxGeometry x="389" y="1017" width="50" height="50" as="geometry" />
        </mxCell>
        <mxCell id="lAccN52SBvZUJXnm4NxN-4" value="" style="group" parent="WIyWlLk6GJQsqaUBKTNV-1" vertex="1" connectable="0">
          <mxGeometry x="584" y="817" width="119" height="60" as="geometry" />
        </mxCell>
        <mxCell id="lAccN52SBvZUJXnm4NxN-5" value="" style="rounded=1;whiteSpace=wrap;html=1;fillColor=#FFFFFF;arcSize=29;strokeColor=#000000;" parent="lAccN52SBvZUJXnm4NxN-4" vertex="1">
          <mxGeometry width="119" height="60" as="geometry" />
        </mxCell>
        <mxCell id="lAccN52SBvZUJXnm4NxN-6" value="Вывод &#39;# &#39;&lt;br&gt;inc(Index)" style="text;html=1;strokeColor=none;fillColor=none;align=center;verticalAlign=middle;whiteSpace=wrap;rounded=0;" parent="lAccN52SBvZUJXnm4NxN-4" vertex="1">
          <mxGeometry x="29.5" y="15" width="60" height="30" as="geometry" />
        </mxCell>
        <mxCell id="lAccN52SBvZUJXnm4NxN-10" value="" style="group" parent="WIyWlLk6GJQsqaUBKTNV-1" vertex="1" connectable="0">
          <mxGeometry x="584" y="649.5" width="120" height="80" as="geometry" />
        </mxCell>
        <mxCell id="AhSV-trbJ5OTMqngt9kD-36" value="" style="rhombus;whiteSpace=wrap;html=1;strokeColor=#000000;fillColor=#FFFFFF;" parent="lAccN52SBvZUJXnm4NxN-10" vertex="1">
          <mxGeometry width="120" height="80" as="geometry" />
        </mxCell>
        <mxCell id="AhSV-trbJ5OTMqngt9kD-37" value="Index &amp;lt;= Line?" style="text;html=1;strokeColor=none;fillColor=none;align=center;verticalAlign=middle;whiteSpace=wrap;rounded=0;" parent="lAccN52SBvZUJXnm4NxN-10" vertex="1">
          <mxGeometry y="10" width="120" height="60" as="geometry" />
        </mxCell>
        <mxCell id="lAccN52SBvZUJXnm4NxN-7" value="" style="rounded=1;whiteSpace=wrap;html=1;fillColor=#FFFFFF;arcSize=29;strokeColor=#000000;" parent="WIyWlLk6GJQsqaUBKTNV-1" vertex="1">
          <mxGeometry x="591.75" y="524.5" width="105" height="40" as="geometry" />
        </mxCell>
        <mxCell id="lAccN52SBvZUJXnm4NxN-16" style="edgeStyle=orthogonalEdgeStyle;rounded=0;orthogonalLoop=1;jettySize=auto;html=1;exitX=0.5;exitY=1;exitDx=0;exitDy=0;entryX=0.5;entryY=0;entryDx=0;entryDy=0;" parent="WIyWlLk6GJQsqaUBKTNV-1" source="lAccN52SBvZUJXnm4NxN-8" target="AhSV-trbJ5OTMqngt9kD-36" edge="1">
          <mxGeometry relative="1" as="geometry" />
        </mxCell>
        <mxCell id="lAccN52SBvZUJXnm4NxN-8" value="Index := 1;" style="text;html=1;strokeColor=none;fillColor=none;align=center;verticalAlign=middle;whiteSpace=wrap;rounded=0;" parent="WIyWlLk6GJQsqaUBKTNV-1" vertex="1">
          <mxGeometry x="581" y="521" width="126.5" height="47" as="geometry" />
        </mxCell>
        <mxCell id="KujpJCQLHhz-ug4YmuEu-0" value="" style="group" vertex="1" connectable="0" parent="WIyWlLk6GJQsqaUBKTNV-1">
          <mxGeometry x="354" y="660" width="151" height="63" as="geometry" />
        </mxCell>
        <mxCell id="KujpJCQLHhz-ug4YmuEu-1" value="" style="rounded=1;whiteSpace=wrap;html=1;fillColor=#FFFFFF;arcSize=29;strokeColor=#000000;" vertex="1" parent="KujpJCQLHhz-ug4YmuEu-0">
          <mxGeometry x="-32" y="-3" width="183" height="66" as="geometry" />
        </mxCell>
        <mxCell id="KujpJCQLHhz-ug4YmuEu-2" value="Переход на новую строку&lt;br&gt;inc(Line);&lt;br&gt;Index := 1;" style="text;html=1;strokeColor=none;fillColor=none;align=center;verticalAlign=middle;whiteSpace=wrap;rounded=0;" vertex="1" parent="KujpJCQLHhz-ug4YmuEu-0">
          <mxGeometry x="-19" y="15" width="157" height="30" as="geometry" />
        </mxCell>
        <mxCell id="KujpJCQLHhz-ug4YmuEu-3" value="" style="group" vertex="1" connectable="0" parent="WIyWlLk6GJQsqaUBKTNV-1">
          <mxGeometry x="354" y="810" width="120" height="80" as="geometry" />
        </mxCell>
        <mxCell id="KujpJCQLHhz-ug4YmuEu-4" value="" style="rhombus;whiteSpace=wrap;html=1;strokeColor=#000000;fillColor=#FFFFFF;" vertex="1" parent="KujpJCQLHhz-ug4YmuEu-3">
          <mxGeometry width="120" height="80" as="geometry" />
        </mxCell>
        <mxCell id="KujpJCQLHhz-ug4YmuEu-5" value="Line &amp;lt;= N?" style="text;html=1;strokeColor=none;fillColor=none;align=center;verticalAlign=middle;whiteSpace=wrap;rounded=0;" vertex="1" parent="KujpJCQLHhz-ug4YmuEu-3">
          <mxGeometry x="20" y="25" width="80" height="30" as="geometry" />
        </mxCell>
        <mxCell id="KujpJCQLHhz-ug4YmuEu-6" style="edgeStyle=orthogonalEdgeStyle;rounded=0;orthogonalLoop=1;jettySize=auto;html=1;exitX=0.5;exitY=1;exitDx=0;exitDy=0;entryX=0.5;entryY=0;entryDx=0;entryDy=0;" edge="1" parent="WIyWlLk6GJQsqaUBKTNV-1" source="AhSV-trbJ5OTMqngt9kD-36" target="lAccN52SBvZUJXnm4NxN-5">
          <mxGeometry relative="1" as="geometry" />
        </mxCell>
        <mxCell id="KujpJCQLHhz-ug4YmuEu-7" style="edgeStyle=orthogonalEdgeStyle;rounded=0;orthogonalLoop=1;jettySize=auto;html=1;exitX=1;exitY=0.5;exitDx=0;exitDy=0;entryX=1;entryY=0.5;entryDx=0;entryDy=0;" edge="1" parent="WIyWlLk6GJQsqaUBKTNV-1" source="lAccN52SBvZUJXnm4NxN-5" target="AhSV-trbJ5OTMqngt9kD-37">
          <mxGeometry relative="1" as="geometry">
            <Array as="points">
              <mxPoint x="767" y="847" />
              <mxPoint x="767" y="690" />
            </Array>
          </mxGeometry>
        </mxCell>
        <mxCell id="KujpJCQLHhz-ug4YmuEu-8" style="edgeStyle=orthogonalEdgeStyle;rounded=0;orthogonalLoop=1;jettySize=auto;html=1;exitX=0;exitY=0.5;exitDx=0;exitDy=0;entryX=0;entryY=0.5;entryDx=0;entryDy=0;" edge="1" parent="WIyWlLk6GJQsqaUBKTNV-1" source="AhSV-trbJ5OTMqngt9kD-11" target="AhSV-trbJ5OTMqngt9kD-31">
          <mxGeometry relative="1" as="geometry">
            <mxPoint x="279.60003662109375" y="637" as="targetPoint" />
            <Array as="points">
              <mxPoint x="254" y="550" />
              <mxPoint x="254" y="408" />
            </Array>
          </mxGeometry>
        </mxCell>
        <mxCell id="KujpJCQLHhz-ug4YmuEu-10" style="edgeStyle=orthogonalEdgeStyle;rounded=0;orthogonalLoop=1;jettySize=auto;html=1;exitX=0.5;exitY=1;exitDx=0;exitDy=0;entryX=0.5;entryY=0;entryDx=0;entryDy=0;" edge="1" parent="WIyWlLk6GJQsqaUBKTNV-1" source="KujpJCQLHhz-ug4YmuEu-1" target="KujpJCQLHhz-ug4YmuEu-4">
          <mxGeometry relative="1" as="geometry" />
        </mxCell>
        <mxCell id="KujpJCQLHhz-ug4YmuEu-11" style="edgeStyle=orthogonalEdgeStyle;rounded=0;orthogonalLoop=1;jettySize=auto;html=1;exitX=0;exitY=0.5;exitDx=0;exitDy=0;entryX=0;entryY=0.5;entryDx=0;entryDy=0;" edge="1" parent="WIyWlLk6GJQsqaUBKTNV-1" source="KujpJCQLHhz-ug4YmuEu-4" target="AhSV-trbJ5OTMqngt9kD-31">
          <mxGeometry relative="1" as="geometry">
            <Array as="points">
              <mxPoint x="145" y="850" />
              <mxPoint x="145" y="408" />
            </Array>
          </mxGeometry>
        </mxCell>
        <mxCell id="KujpJCQLHhz-ug4YmuEu-12" style="edgeStyle=orthogonalEdgeStyle;rounded=0;orthogonalLoop=1;jettySize=auto;html=1;exitX=0.5;exitY=1;exitDx=0;exitDy=0;" edge="1" parent="WIyWlLk6GJQsqaUBKTNV-1" source="KujpJCQLHhz-ug4YmuEu-4" target="AhSV-trbJ5OTMqngt9kD-49">
          <mxGeometry relative="1" as="geometry" />
        </mxCell>
        <mxCell id="KujpJCQLHhz-ug4YmuEu-45" style="edgeStyle=orthogonalEdgeStyle;rounded=0;orthogonalLoop=1;jettySize=auto;html=1;exitX=0;exitY=0.5;exitDx=0;exitDy=0;entryX=1;entryY=0.5;entryDx=0;entryDy=0;" edge="1" parent="WIyWlLk6GJQsqaUBKTNV-1" source="AhSV-trbJ5OTMqngt9kD-37" target="KujpJCQLHhz-ug4YmuEu-1">
          <mxGeometry relative="1" as="geometry" />
        </mxCell>
        <mxCell id="KujpJCQLHhz-ug4YmuEu-46" value="True" style="text;html=1;strokeColor=none;fillColor=none;align=center;verticalAlign=middle;whiteSpace=wrap;rounded=0;" vertex="1" parent="WIyWlLk6GJQsqaUBKTNV-1">
          <mxGeometry x="598" y="735" width="40" height="20" as="geometry" />
        </mxCell>
        <mxCell id="KujpJCQLHhz-ug4YmuEu-47" value="False" style="text;html=1;strokeColor=none;fillColor=none;align=center;verticalAlign=middle;whiteSpace=wrap;rounded=0;" vertex="1" parent="WIyWlLk6GJQsqaUBKTNV-1">
          <mxGeometry x="532" y="664" width="40" height="20" as="geometry" />
        </mxCell>
      </root>
    </mxGraphModel>
  </diagram>
</mxfile>
